<svg xmlns="http://www.w3.org/2000/svg" viewBox="0 0 512 512">
  <defs>
    <linearGradient id="bg" x1="76" y1="48" x2="430" y2="466" gradientUnits="userSpaceOnUse">
      <stop stop-color="#B1CAFF"/>
      <stop offset="1" stop-color="#6F91DC"/>
    </linearGradient>
    <linearGradient id="body" x1="150" y1="160" x2="356" y2="384" gradientUnits="userSpaceOnUse">
      <stop stop-color="#33383F"/>
      <stop offset="1" stop-color="#181B1F"/>
    </linearGradient>
  </defs>
  <rect x="28" y="28" width="456" height="456" rx="112" fill="url(#bg)"/>
  <path d="M135 208c0-69 47-119 119-119 51 0 93 25 112 67 6 13 12 26 24 35 24 18 42 46 42 75 0 47-29 73-73 73h-17v69c0 13-10 23-23 23s-23-10-23-23v-70h-94v70c0 13-10 23-23 23s-23-10-23-23v-86c-14-28-21-61-21-114Z" fill="url(#body)"/>
  <path d="M340 186c25 0 52 10 71 31 16 18 21 39 13 57-8 20-29 31-59 31h-37c-22 0-40-18-40-40v-28c0-28 23-51 52-51Z" fill="#F0A7A7"/>
  <path d="M420 244c21 8 34 27 31 44-4 20-23 32-52 32h-48c-9 0-16-7-16-16s7-16 16-16h46c14 0 21-4 22-8 1-4-4-11-11-14l12-22Z" fill="#20242A"/>
  <circle cx="322" cy="205" r="10" fill="#F7F8FC"/>
  <circle cx="325" cy="207" r="5" fill="#111317"/>
  <path d="M162 137 121 92c-8-9-22-7-27 4-13 30 1 65 33 76l35-35Z" fill="#252A30"/>
  <path d="m345 140 40-43c8-9 22-7 27 4 12 30-2 64-34 74l-33-35Z" fill="#252A30"/>
  <path d="M135 340h207" stroke="#111317" stroke-width="14" stroke-linecap="round" opacity=".35"/>
</svg>
